<svg width="22" height="20" viewBox="0 0 22 20" fill="none" xmlns="http://www.w3.org/2000/svg">
<path fill-rule="evenodd" clip-rule="evenodd" d="M2.50839 4.47885C2.23791 4.39096 1.95325 4.56698 1.91102 4.84824L1.40439 8.22303C1.33182 8.70646 1.61938 9.17149 2.08429 9.32255L19.3436 14.9304C20.15 15.1925 21.0162 14.7511 21.2783 13.9446C21.5507 13.1063 21.0629 12.2113 20.2108 11.9859L14.8991 10.5805L13.571 1.20729C13.5159 0.818385 13.2441 0.49483 12.8705 0.373452C12.2446 0.170059 11.5913 0.598869 11.5289 1.2541L10.7688 9.23843L3.51258 7.29588L2.80926 4.7921C2.76765 4.64395 2.65474 4.5264 2.50839 4.47885ZM21.3445 17.9521H0.814453V19.5314H21.3445V17.9521Z" fill="#6E7491"/>
</svg>
