<svg width="33" height="32" viewBox="0 0 33 32" fill="none" xmlns="http://www.w3.org/2000/svg">
<path d="M10.333 5.77778C10.333 5.34822 10.9188 5 11.333 5C11.7472 5 12.333 5.34822 12.333 5.77778V7.33333H10.333V5.77778Z" fill="#6E7491"/>
<path d="M20.333 5.77778C20.333 5.34822 20.9188 5 21.333 5C21.7472 5 22.333 5.34822 22.333 5.77778V7.33333H20.333V5.77778Z" fill="#6E7491"/>
<path fill-rule="evenodd" clip-rule="evenodd" d="M10.333 7.33333H8.08301C7.66879 7.33333 7.33301 7.68156 7.33301 8.11111V25.2222C7.33301 25.6518 7.66879 26 8.08301 26H24.583C24.9972 26 25.333 25.6518 25.333 25.2222V8.11111C25.333 7.68156 24.9972 7.33333 24.583 7.33333H22.333H20.333H12.333H10.333ZM23.833 12H8.83301V24.4444H23.833V12Z" fill="#6E7491"/>
<path d="M10.333 15.5C10.333 14.6716 11.0046 14 11.833 14C12.6614 14 13.333 14.6716 13.333 15.5C13.333 16.3284 12.6614 17 11.833 17C11.0046 17 10.333 16.3284 10.333 15.5Z" fill="#6E7491"/>
<path d="M22.333 18.5C22.333 17.6716 21.6614 17 20.833 17C20.0046 17 19.333 17.6716 19.333 18.5C19.333 19.3284 20.0046 20 20.833 20C21.6614 20 22.333 19.3284 22.333 18.5Z" fill="#6E7491"/>
</svg>
